<?xml version="1.0" encoding="utf-8"?>
<!-- Generator: Adobe Adobe Illustrator 24.2.0, SVG Export Plug-In . SVG Version: 6.00 Build 0)  -->
<svg version="1.1" xmlns="http://www.w3.org/2000/svg" xmlns:xlink="http://www.w3.org/1999/xlink" x="0px" y="0px" width="720px"
	 height="720px" viewBox="0 0 720 720" style="enable-background:new 0 0 720 720;" xml:space="preserve">
<style type="text/css">
	.st0{stroke:#000000;stroke-miterlimit:10;}
	.st1{fill:#FFFFFF;stroke:#000000;stroke-width:2;stroke-miterlimit:10;}
	.st2{fill:#FFD4D4;stroke:#000000;stroke-width:2;stroke-miterlimit:10;}
	.st3{stroke:#000000;stroke-width:2;stroke-miterlimit:10;}
</style>
<g id="Layer_3">
	<circle class="st0" cx="380.89" cy="381.28" r="275"/>
</g>
<g id="t">
	<path class="st1" d="M110.93,328.62c-26.54,13.8,40.67-176.95,116.47-172.41c64.87,3.89,55.81,66.85,50.05,98.7
		c-2.52,13.95-17.86,14.81-21.37,8.53c-1.04-1.85-36.44-32.4-36.44,21.21c0,2.07,11.62,45.43,21.19,55
		c8.66,8.66,3.58,48.16-27.68,20.34c-10.52-9.36-18.55-51.5-18.87-52.69c-18.18-66.34-48.35,5.44-51.8,16.64
		C136.77,342.55,133.51,316.88,110.93,328.62z"/>
</g>
<g id="h_1_">
	<path class="st1" d="M105.12,370.88c-11.42,32.71-3.41,74.47,0,92.95c12.13,65.63,61.41,108.85,47.23,66.76
		c-9.31-27.64-13.98-43.37,3.43-48.1c25.79-7,23.85,51.14,14.77,77.81c-3.61,10.61,20.39,28.48,19.71,20.99
		c-1.4-15.37,2.38-113.04,8-158.38c4.43-35.75-10.1-106.12-29.42-94.05c-15.08,9.43-6.76,66.66-6.76,82.64
		c0,19.41-25.1,34.48-25.1-19.82c0-7.78,2.39-14.77-1.16-26.59C130.51,347.37,112.05,351.04,105.12,370.88z"/>
</g>
<g id="a">
	<path class="st1" d="M226.41,401.28c-23.17,58.64-30.61,179.21-11.68,202.25c3.19,3.89,17.5,21.32,19.67,10.5
		c24.36-121.93,15.28-3.29,16.59,5.5c1.3,8.74,7.57,22.78,13.27,10.84c95.58-200.34,1.18-343.41-9-344.7
		c-11.34-1.44-7.84,18.21-3.66,26.69C298.75,408.09,232.36,386.22,226.41,401.28z"/>
	<g id="gap">
		<path class="st3" d="M242.27,436.54c-5.54-3.22-15.13,41.96,1.18,29.78c28.91-21.58,12.46-2.23,35.04,28.34
			c4.64,6.28,17.91-88.67,6.78-82.9C276.71,416.2,264.21,449.27,242.27,436.54z"/>
	</g>
</g>
<g id="p1">
	<path class="st1" d="M360,656.28c12.56,12.56-88.16,2.85-82.3-20.02c12.86-50.16,79.71-100.57,24.62-304.8
		c-2.37-8.78,21.61-8.11,23.99,10.8c2.66,21.1,29.36,60.36,56.67,63.42c6.82,0.76,17.22,28.87,5.07,45.36
		c-6.31,8.57-14.89,22.04-38.44,4.93C336.42,446.38,314.57,610.85,360,656.28z"/>
	<g id="gap_1_">
		<path class="st3" d="M343.13,405.54c-5.42,11.91,35.47,76.03,35.47,15.46c0-6.09-6.14,7.11-15.2-3.24
			C359.49,413.3,345.59,400.14,343.13,405.54z"/>
	</g>
</g>
<g id="p2">
	<path class="st1" d="M372.72,535.22c25.97,17.56,76.82-29.32,32.88-70.5c-8.74-8.19-0.57,43.58-51.4,14.93
		c-12.24-6.9-15.13,167.12,35.27,176.49c28.54,5.31,46.19-1.94,43.46-3.34C389.71,630.65,353.74,522.39,372.72,535.22z"/>
	<g id="gap_2_">
		<path class="st3" d="M408.09,491.52c3.24-3.24-7.86,46.89-33.09,21.65c-15.9-15.9,12.83-8.15,21.78-12.84
			C400.68,498.3,401.65,497.96,408.09,491.52z"/>
	</g>
</g>
<g id="e">
	<path class="st1" d="M402.66,558.52c-5.89,4.39-2.85,32.06,45.72,86.08c16.53,18.39,75.62-22.68,72.91-26.82
		c-27.35-41.82-37.23-26.83-41.17-89.38c-0.33-5.31-10.8-2.15-12.14-0.41c-2.23,2.9-7.6,17.87-12.83,5.27
		c-0.05-0.13-4.03-25.52-1.14-32.6c0.14-0.35,5.5-12.71,11.85,0.64c2.69,5.66,12.12,1.82,10.64-2.52
		c-3.12-9.13-8.05-14.02-2.69-49.81c0.69-4.6-7.35-2.56-8.47,1.02c-0.81,2.59-4.93,15.38-12.47,1.81
		c-8.67-15.61-6.82-25.14-5.09-29.45c1.36-3.41,5.09-12.65,14.44,3.11c1.35,2.28,10.38,2.21,10.6-0.79
		c0.79-11.03-7.6-14.1,7.01-39.96c3.1-5.48-20.55-46.41-24.54-45.03c-5.86,2.03-12.49,42-48.47,59.57c0,0,0,0,0,0
		c-8.35,4.08-6.38,24.07,1.52,37.15C408.34,436.41,481.92,499.52,402.66,558.52z"/>
</g>
<g id="n">
	<path class="st1" d="M492.86,406.62c-6.72,3.73-27.75,160.09,46.84,201.92c9.4,5.27,43.37-24.33,32.51-25.74
		c-24.93-3.22-66.1-27.45-32.46-51.67c35.73-25.72,26.41,51.97,47.75,42.52c0,0,0,0,0,0c13.48-5.97,38.03-44,33.5-48.53
		c-26.7-26.7-77.55-1.82-77.55-180.46c0-7.19-8.85-14.83-15.43-12.9c-9.84,2.89-15.02,39.97-9.97,44.48
		c15.44,13.76,16.7,40.91,18.76,57.24c0.97,7.67,1.23,20.42-8.18,26.32c-13.11,8.21-18.2-14.67-19.43-25.02
		C506.96,415.94,499.7,402.81,492.86,406.62z"/>
</g>
<g id="s">
	<path class="st1" d="M562.51,339.77c13.77-20.52,62.82-43.84,83.78-37.98c5.88,1.64,6.67,12.96,2.59,17.5
		c-12.75,14.2-63.16,22.97-51.44,54.45c4.07,10.94,29.51,17.74,42.93-18.32c2.56-6.89,20.35-27.86,21.02-12.76
		C667.26,475,632.2,507.02,632.2,507.02s-59.77-21.58-67.35-93.06c-0.45-4.21,15.75,4.81,15.75,11.09
		c0,15.27,11.96,13.05,14.31,12.14c16.6-6.41,19.53-34.3-31.47-46.4C553.57,388.46,554.67,351.45,562.51,339.77z"/>
	<path class="st1" d="M480.22,124.77c-59.86,59.86-34.55,227.75,16.75,231.37c11.64,0.82,4.6-53.2,19.64-60.02
		c6.57-2.98,32.52,18.28,39.72,18.72c24.66,1.48,61.14-21.14,84.03-30.57c8.38-3.45-12.72-55.14-25.97-53.32
		c-19.1,2.63-40.82,16.32-44.62,28.4c-8.75,27.83-19.93,54.46-47.15-5.44c-17.22-37.89,5.26-57.86,31.3-28.96
		c9.09,10.09,34.56,0.12,47.2-8.38c16.78-11.29-31.26-56.91-47.86-62.43c-17.36-5.77-30.96,29.53-41.69,49.46
		c-8.46,15.73,21.7-48.71,11.26-63.2C515.3,129.93,488.22,116.76,480.22,124.77z"/>
</g>
<g id="c">
	<path class="st1" d="M401.93,215.1c1.39,6.1,20.6,4.7,24.16-1.29c12.42-20.92-3.8-71.43,33.38-96.14
		c9.36-6.22-25.67-16.66-42.78-13.73c-27.47,4.72-92.72,96.39-74.05,225.32c1.73,11.91,9.21,59.74,51.02,52.02
		c18.03-3.33,55.83-38.14,47.45-67.5c-5.35-18.73-16.11-26.53-10.25-77.25c0.97-8.39-31.71-3.03-32.93,7.49
		c-5.8,50.2-24.45,28.31-24.86,3.41c-0.25-15.51,1.4-33.52,2.82-39.81C383.21,175.25,391.92,171.18,401.93,215.1z"/>
</g>
<g id="i">
	<path class="st1" d="M314.32,307.31c0-180.73,92.55-226.12,81.78-226.12c-67.69,18.35-52.39-11.45-60.76-39.25
		c-2.27-7.53-15.61,55.7-52.94,34.99c-8.72-4.84,17.23,16.09-46.72,2.65c-12.07-2.54,65.33,19.92,14.56,59.65
		c-10.34,10.34,69.64-18.9,54.56,160.82C303.4,316.89,314.32,313.48,314.32,307.31z"/>
</g>
</svg>
